<?xml version="1.0" standalone="no"?>
<!DOCTYPE svg PUBLIC "-//W3C//DTD SVG 20010904//EN"
 "http://www.w3.org/TR/2001/REC-SVG-20010904/DTD/svg10.dtd">
<svg version="1.0" xmlns="http://www.w3.org/2000/svg"
 width="512.000000pt" height="512.000000pt" viewBox="0 0 512.000000 512.000000"
 preserveAspectRatio="xMidYMid meet">
<metadata>
Created by potrace 1.14, written by Peter Selinger 2001-2017
</metadata>
<g transform="translate(0.000000,512.000000) scale(0.100000,-0.100000)"
fill="#000000" stroke="none">
<path d="M952 4430 c-40 -11 -97 -32 -125 -47 -76 -41 -178 -147 -216 -224
-64 -131 -62 -64 -59 -1632 l3 -1422 22 -65 c56 -162 188 -292 353 -347 52
-17 133 -18 1597 -21 1678 -3 1622 -4 1738 52 124 62 233 185 278 316 l22 65
3 1422 c3 1571 5 1502 -60 1633 -44 87 -144 187 -229 228 -130 64 -52 62
-1729 61 -1470 0 -1528 -1 -1598 -19z"/>
</g>
</svg>
